<?xml version="1.0" standalone="no"?>
<!DOCTYPE svg PUBLIC "-//W3C//DTD SVG 20010904//EN"
 "http://www.w3.org/TR/2001/REC-SVG-20010904/DTD/svg10.dtd">
<svg version="1.0" xmlns="http://www.w3.org/2000/svg"
 width="128.000000pt" height="128.000000pt" viewBox="0 0 128.000000 128.000000"
 preserveAspectRatio="xMidYMid meet">
<metadata>
Created by potrace 1.14, written by Peter Selinger 2001-2017
</metadata>
<g transform="translate(0.000000,128.000000) scale(0.100000,-0.100000)"
fill="#000000" stroke="none">
<path d="M380 1093 c-102 -65 -270 -239 -333 -346 -45 -78 -47 -85 -42 -137
10 -97 14 -123 22 -131 7 -7 71 -13 233 -24 25 -1 97 -6 160 -10 63 -5 126 -9
138 -9 23 0 24 -1 17 -76 -4 -41 -10 -104 -15 -140 -4 -36 -5 -69 -2 -74 4 -7
84 -4 257 9 22 2 83 6 135 9 52 4 131 9 175 13 44 3 91 6 104 7 29 1 36 21 45
124 6 68 6 70 -38 147 -62 109 -232 288 -334 351 -75 47 -78 48 -148 46 l-72
-3 -6 58 c-4 32 -9 78 -12 103 -9 75 -15 105 -23 112 -4 5 -47 10 -96 13 l-90
6 -75 -48z m208 -7 c7 -8 -79 -156 -90 -156 -8 0 -65 30 -86 46 -4 2 43 88 60
110 7 10 106 10 116 0z m-215 -78 c-33 -53 -211 -236 -252 -261 -32 -19 -43
-9 -16 13 8 7 15 17 15 22 0 5 6 15 13 23 154 162 243 245 265 245 1 0 -10
-19 -25 -42z m253 -53 c8 -84 9 -112 1 -145 -3 -14 -6 -41 -7 -60 l-1 -35 -18
35 c-10 19 -28 60 -40 90 l-22 55 37 68 c20 38 38 67 40 65 2 -2 6 -35 10 -73z
m-201 -37 c25 -12 45 -26 45 -31 0 -5 -49 -60 -109 -121 l-110 -112 -26 48
-27 49 84 85 c45 47 85 89 86 95 5 12 5 12 57 -13z m135 -187 c41 -98 47 -128
36 -194 -1 -10 -6 -18 -12 -18 -9 0 -286 101 -292 106 -2 2 45 53 104 114 59
62 110 108 114 104 4 -4 26 -55 50 -112z m278 23 c17 -31 30 -59 27 -64 -6
-10 -86 -52 -91 -47 -12 12 -83 150 -80 156 2 3 28 7 58 9 l53 2 33 -56z m86
-13 c53 -33 266 -268 266 -294 0 -31 -246 209 -292 285 -21 33 -16 35 26 9z
m-219 -66 l36 -66 -56 -137 c-32 -75 -60 -139 -62 -142 -5 -5 5 124 12 160 2
8 6 49 9 90 4 41 9 84 11 95 2 11 4 30 4 43 1 12 3 22 5 22 2 0 21 -29 41 -65z
m-513 -3 l27 -48 -77 -46 c-52 -31 -79 -43 -84 -35 -6 11 -11 67 -9 95 1 10
95 80 111 81 3 1 17 -21 32 -47z m766 -79 c30 -32 70 -75 89 -95 l36 -37 -28
-47 -28 -48 -108 115 c-60 63 -109 117 -109 121 0 8 69 47 85 48 5 0 33 -26
63 -57z m-561 -54 c76 -29 140 -54 143 -56 2 -2 -27 -2 -65 1 -39 3 -110 8
-160 11 -95 6 -189 15 -192 19 -3 3 121 76 129 76 4 0 70 -23 145 -51z m584
-196 c-1 -8 -353 -144 -359 -138 -2 2 31 84 74 184 l77 181 104 -109 c58 -60
104 -113 104 -118z m193 56 c51 -32 68 -48 61 -59 -2 -4 -5 -25 -6 -48 -2 -23
-7 -42 -12 -42 -9 0 -118 63 -144 82 -9 7 -5 21 15 54 15 24 29 44 31 44 2 0
27 -14 55 -31z m-31 -161 c22 -18 22 -18 -18 -19 -22 0 -51 -2 -65 -4 -14 -1
-79 -6 -145 -9 -66 -4 -133 -9 -150 -12 -50 -9 -22 5 122 60 l138 53 48 -26
c26 -14 57 -34 70 -43z"/>
<path d="M857 1093 c-13 -12 -7 -41 8 -39 22 3 38 22 31 35 -8 12 -29 15 -39
4z"/>
<path d="M810 1036 c0 -20 5 -26 21 -26 15 0 20 5 17 22 -5 34 -38 37 -38 4z"/>
<path d="M894 1036 c4 -28 41 -29 41 -1 0 14 -7 20 -22 21 -17 1 -22 -4 -19
-20z"/>
<path d="M856 1012 c-3 -3 -6 -14 -6 -24 0 -13 7 -18 25 -18 18 0 25 5 25 19
0 18 -33 35 -44 23z"/>
<path d="M920 915 c0 -8 0 -18 0 -22 0 -20 35 -6 38 15 3 17 -2 22 -17 22 -12
0 -21 -6 -21 -15z"/>
<path d="M1170 780 c0 -14 7 -20 23 -20 16 0 23 6 23 20 0 14 -7 20 -23 20
-16 0 -23 -6 -23 -20z"/>
<path d="M235 402 c-3 -8 -1 -20 4 -25 14 -14 43 0 39 20 -4 21 -35 25 -43 5z"/>
<path d="M170 310 c0 -13 -7 -20 -20 -20 -15 0 -20 -7 -20 -25 0 -19 5 -25 17
-23 10 2 19 -5 22 -17 3 -11 15 -21 27 -23 16 -2 20 3 20 20 -1 16 5 23 19 23
14 0 20 7 21 23 1 16 -4 22 -18 22 -11 0 -22 9 -25 20 -3 11 -14 20 -24 20
-12 0 -19 -7 -19 -20z m43 -44 c-7 -33 -43 -32 -43 1 0 17 6 23 24 23 19 0 22
-4 19 -24z"/>
</g>
</svg>
